<svg xmlns="http://www.w3.org/2000/svg" xmlns:xlink="http://www.w3.org/1999/xlink" viewBox="0 0 108 108"><defs><style>.cls-1{fill:none;}.cls-2{fill:#242b34;}.cls-3{isolation:isolate;}.cls-4{fill:#252c34;}.cls-5{clip-path:url(#clip-path);}.cls-6{fill:#fff;}.cls-7{fill:#151c24;}.cls-8{fill:#141b23;}</style><clipPath id="clip-path"><polygon class="cls-1" points="83.49 28.07 83.41 73.53 27.25 81.42 27.33 35.96 83.49 28.07"/></clipPath></defs><g id="bluefig-app"><rect class="cls-2" width="108" height="108"/><g class="cls-3"><polygon class="cls-4" points="83.49 28.07 83.41 73.53 27.25 81.42 27.33 35.96 83.49 28.07"/><g class="cls-3"><g class="cls-5"><path class="cls-6" d="M54.9,67.8a9.77,9.77,0,0,1-6.84-1.48,6.52,6.52,0,0,1-3-5.14,10.74,10.74,0,0,1,1.32-5.82c.57-1.09,1.27-2.11,1.91-3.17,1.41-2.37,2.8-4.77,4.23-7.12a3.86,3.86,0,0,1,2.74-1.9,2.84,2.84,0,0,1,2.58.92c.36.4.65.87,1,1.3q2.64,3.55,5.26,7.12c1.81,2.44,2,5.32.73,8.49a10.4,10.4,0,0,1-4.27,4.77,13.53,13.53,0,0,1-5.59,2m.39-30.74a6,6,0,0,0-4,2.6c-.28.41-.53.86-.78,1.29-2.29,3.8-4.55,7.62-6.86,11.41a30.68,30.68,0,0,0-2.35,4.33A15.47,15.47,0,0,0,40,64.76a9.77,9.77,0,0,0,4.34,6.87A14.87,14.87,0,0,0,54.94,73.9a20.27,20.27,0,0,0,9.34-3.84,17,17,0,0,0,4.82-5.47,13.4,13.4,0,0,0,1.52-7.17,10.25,10.25,0,0,0-2-6c-.93-1.22-1.93-2.38-2.84-3.62-2.07-2.85-4.1-5.74-6.15-8.61a4.94,4.94,0,0,0-1.93-1.76,4.28,4.28,0,0,0-2.43-.33"/><path class="cls-6" d="M57.12,58.11c-.35,0-.5.21-.45.53a1.26,1.26,0,0,0,.13.43,4.69,4.69,0,0,0,2.49,2.26,1.27,1.27,0,0,0,.28.06h.19c.3,0,.42-.29.32-.67a2.25,2.25,0,0,0-.19-.45,4.94,4.94,0,0,0-2.23-2,2.88,2.88,0,0,0-.54-.14"/><path class="cls-6" d="M51.25,56.56a5.22,5.22,0,0,0-2,.77c-.14.1-.34.35-.32.48a.55.55,0,0,0,.35.41c.55.09,1.12.12,1.77.19.64-.27,1.33-.53,2-.85a.76.76,0,0,0,.33-.52c0-.15-.21-.35-.36-.39a4.65,4.65,0,0,0-1.74-.09"/><path class="cls-6" d="M53.58,58.53a1.12,1.12,0,0,0-.49.26,7,7,0,0,0-2.2,2.93,2.61,2.61,0,0,0-.07.93,2.29,2.29,0,0,0,.83-.25,6,6,0,0,0,2.42-3.67c-.15-.07-.3-.21-.46-.2h0"/><path class="cls-6" d="M59.73,51l-.09,0a1.54,1.54,0,0,0-.51.26,6.94,6.94,0,0,0-2.21,2.93,3.21,3.21,0,0,0-.07.94,2.78,2.78,0,0,0,.83-.26A7,7,0,0,0,59.89,52a3.65,3.65,0,0,0,.15-.51c0-.35-.1-.49-.31-.46"/><path class="cls-6" d="M51.12,52.28c-.39.06-.51.23-.46.55a1.64,1.64,0,0,0,.17.5,4.62,4.62,0,0,0,2.39,2.13.72.72,0,0,0,.36,0l.18,0,.18,0H54a2.67,2.67,0,0,0-.1-.87,4.65,4.65,0,0,0-2.37-2.16,2,2,0,0,0-.43-.1"/><path class="cls-6" d="M59.77,55.37a5.29,5.29,0,0,0-2,.72c-.17.1-.4.41-.38.53a.62.62,0,0,0,.44.43c.51.09,1,.1,1.66.15.62-.25,1.3-.49,2-.8a.9.9,0,0,0,.4-.57c0-.14-.24-.35-.42-.39a4.53,4.53,0,0,0-1.68-.07"/><path class="cls-6" d="M55.28,59.11c-.12,0-.31.26-.37.43A6.16,6.16,0,0,0,55,63.72c.06.16.27.34.41.32h0c.14,0,.35-.28.39-.47.16-.62.26-1.25.39-2-.15-.7-.3-1.46-.51-2.19a.49.49,0,0,0-.43-.29h0"/><path class="cls-6" d="M55.32,49.65h0a.79.79,0,0,0-.4.47c-.15.64-.25,1.28-.38,2,.15.68.29,1.41.49,2.11a.52.52,0,0,0,.41.34h0c.14,0,.35-.27.41-.45A6.13,6.13,0,0,0,55.74,50c-.06-.16-.27-.34-.42-.32"/></g></g><polygon class="cls-7" points="27.25 81.42 24.51 79.94 24.6 34.48 27.33 35.96 27.25 81.42"/><polygon class="cls-8" points="27.33 35.96 24.6 34.48 80.76 26.58 83.49 28.07 27.33 35.96"/></g></g></svg>